<svg width="24" height="24" viewBox="0 0 24 24" fill="none" xmlns="http://www.w3.org/2000/svg">
<path fill-rule="evenodd" clip-rule="evenodd" d="M12.7615 2.04746C12.5247 1.98418 12.2754 1.98418 12.0386 2.04746C11.7579 2.1225 11.5251 2.30429 11.4025 2.40005L11.3674 2.42725L4.53423 7.65253C4.14742 7.94776 3.82124 8.19671 3.57849 8.52102C3.36519 8.80597 3.20617 9.12776 3.10938 9.47029C2.99923 9.86012 2.99961 10.2705 3.00006 10.7571L3.00011 17.106C3.0001 17.6358 3.00009 18.087 3.03035 18.4574C3.06215 18.8466 3.13178 19.2252 3.31619 19.5871C3.59423 20.1328 4.03787 20.5764 4.58354 20.8545C4.94547 21.0389 5.32406 21.1085 5.71322 21.1403C6.08364 21.1706 6.53479 21.1706 7.06464 21.1706H12.3898C12.3933 21.1706 12.3968 21.1706 12.4004 21.1706C12.4039 21.1706 12.4074 21.1706 12.411 21.1706H17.7355C18.2653 21.1706 18.7165 21.1706 19.0869 21.1403C19.4761 21.1085 19.8547 21.0389 20.2166 20.8545C20.7623 20.5764 21.2059 20.1328 21.484 19.5871C21.6684 19.2252 21.738 18.8466 21.7698 18.4574C21.8001 18.087 21.8001 17.6359 21.8 17.106L21.8001 10.757C21.8005 10.2704 21.8009 9.86012 21.6908 9.47029C21.594 9.12776 21.435 8.80597 21.2217 8.52102C20.9789 8.19671 20.6527 7.94776 20.2659 7.65253L13.4327 2.42725L13.3977 2.40005C13.2751 2.30429 13.0423 2.1225 12.7615 2.04746ZM13.3004 19.3704H18.1001C18.9146 19.3704 19.1085 19.3593 19.24 19.3166C19.5749 19.2078 19.8374 18.9452 19.9462 18.6103C19.989 18.4788 20.0001 18.285 20.0001 17.4704V10.654C20.0001 10.2338 19.9965 10.1383 19.9816 10.0579C19.9445 9.85806 19.8527 9.67242 19.7165 9.52157C19.6617 9.46085 19.588 9.40003 19.2542 9.14475L12.4001 3.90339L5.54596 9.14475C5.21214 9.40003 5.13845 9.46085 5.08363 9.52157C4.94744 9.67242 4.8557 9.85806 4.8186 10.0579C4.80367 10.1383 4.80012 10.2338 4.80012 10.654V17.4704C4.80012 18.285 4.81122 18.4788 4.85395 18.6103C4.96276 18.9452 5.22531 19.2078 5.56019 19.3166C5.69172 19.3593 5.88555 19.3704 6.70011 19.3704H11.5004V13.7706C11.5004 13.2736 11.9033 12.8706 12.4004 12.8706C12.8974 12.8706 13.3004 13.2736 13.3004 13.7706V19.3704Z" fill="currentColor"/>
</svg>
