<svg width="24" height="25" viewBox="0 0 24 25" fill="none" xmlns="http://www.w3.org/2000/svg">
<g clip-path="url(#clip0_3832_9330)">
<path d="M12.5 14.5645C13.7441 14.5637 14.9694 14.7164 16.1758 15.0215C17.2321 15.2887 18.2773 15.6717 19.3115 16.1729L19.7549 16.3955C20.198 16.6362 20.5565 16.9836 20.835 17.4551C21.1115 17.9234 21.2506 18.4338 21.25 19.002V21.6973C21.25 22.3876 20.6904 22.9473 20 22.9473H5C4.30964 22.9473 3.75 22.3876 3.75 21.6973V19.0029L3.75684 18.792C3.78731 18.3064 3.92419 17.864 4.16602 17.4551C4.44669 16.9806 4.80829 16.6305 5.25586 16.3887C6.43075 15.7785 7.62002 15.3243 8.82324 15.0215C10.0301 14.7178 11.2555 14.5653 12.5 14.5645ZM12.5 3.44727C13.596 3.44727 14.5213 3.84383 15.3145 4.66895C16.1082 5.49487 16.5 6.47118 16.5 7.63867C16.4999 8.80617 16.1083 9.78247 15.3145 10.6084C14.5213 11.4335 13.596 11.8301 12.5 11.8301C11.404 11.8301 10.4787 11.4335 9.68555 10.6084C8.89167 9.78247 8.50005 8.80617 8.5 7.63867C8.5 6.47118 8.89177 5.49487 9.68555 4.66895C10.4787 3.84383 11.404 3.44727 12.5 3.44727Z" stroke="currentColor" stroke-width="1.5"/>
</g>
<defs>
<clipPath id="clip0_3832_9330">
<rect width="24" height="24" fill="white" transform="translate(0 0.697266)"/>
</clipPath>
</defs>
</svg>
