<svg width="24" height="25" viewBox="0 0 24 25" fill="none" xmlns="http://www.w3.org/2000/svg">
<g clip-path="url(#clip0_3832_9335)">
<path d="M14.378 22.2508H9.62195C9.53476 22.2508 9.46341 22.3232 9.46341 22.4116V23.0544C9.46341 23.41 9.7468 23.6973 10.0976 23.6973H13.9024C14.2532 23.6973 14.5366 23.41 14.5366 23.0544V22.4116C14.5366 22.3232 14.4652 22.2508 14.378 22.2508ZM12 5.69727C8.41113 5.69727 5.5 8.64838 5.5 12.2866C5.5 14.7254 6.80793 16.8549 8.75 17.9939V20.3223C8.75 20.6778 9.03338 20.9651 9.38415 20.9651H14.6159C14.9666 20.9651 15.25 20.6778 15.25 20.3223V17.9939C17.1921 16.8549 18.5 14.7254 18.5 12.2866C18.5 8.64838 15.5889 5.69727 12 5.69727ZM14.5346 16.7424L13.8232 17.1602V19.5187H10.1768V17.1602L9.4654 16.7424C7.90579 15.8283 6.92683 14.1448 6.92683 12.2866C6.92683 9.44593 9.19787 7.14369 12 7.14369C14.8021 7.14369 17.0732 9.44593 17.0732 12.2866C17.0732 14.1448 16.0942 15.8283 14.5346 16.7424Z" fill="currentColor"/>
<path d="M9.9225 10.6088C9.53874 10.4657 9.37564 10.0488 9.6059 9.74569C10.0712 9.13937 10.8483 8.69727 11.8749 8.69727C13.0022 8.69727 13.7745 9.14779 14.1678 9.712C14.5036 10.1962 14.7003 11.1015 14.1822 11.7752C13.6066 12.5204 13.0549 12.7478 12.7575 13.2278C12.6856 13.3415 12.6424 13.4341 12.6136 13.6236C12.5704 13.9309 12.2826 14.1709 11.9276 14.1709C11.5103 14.1709 11.1697 13.8552 11.2177 13.4888C11.2465 13.2741 11.304 13.051 11.4384 12.8404C11.8077 12.2552 12.5177 11.9099 12.9302 11.392C13.3667 10.8488 13.1221 9.83411 11.8845 9.83411C11.3232 9.83411 10.9587 10.0909 10.7332 10.3983C10.5653 10.6383 10.2151 10.7141 9.9225 10.6088ZM12.8391 15.8552C12.8391 16.3183 12.4073 16.6973 11.8797 16.6973C11.352 16.6973 10.9203 16.3183 10.9203 15.8552C10.9203 15.392 11.352 15.0131 11.8797 15.0131C12.4073 15.0131 12.8391 15.392 12.8391 15.8552Z" fill="currentColor"/>
<path d="M1.5 12.6973H2.66667M12 1.69727V2.91949M21.3333 12.6973H22.5M4.53333 4.87504L5.35 5.7306M19.4667 4.87504L18.65 5.7306" stroke="currentColor" stroke-width="1.5" stroke-linecap="round" stroke-linejoin="round"/>
</g>
<defs>
<clipPath id="clip0_3832_9335">
<rect width="24" height="24" fill="white" transform="translate(0 0.697266)"/>
</clipPath>
</defs>
</svg>
