<svg width="24" height="24" viewBox="0 0 24 24" fill="none" xmlns="http://www.w3.org/2000/svg">
<g clip-path="url(#clip0_2115_4022)">
<path d="M11.0003 13.9372V14.9372H13.0003V13.9372H11.0003ZM14.8649 9.53756H15.8649H14.8649ZM8.13574 9.53756C8.13574 10.0898 8.58346 10.5376 9.13574 10.5376C9.68803 10.5376 10.1357 10.0898 10.1357 9.53756H8.13574ZM12.0003 13.9372H13.0003C13.0003 13.4282 13.3129 13.0749 14.0805 12.4221C14.413 12.1393 14.8579 11.7727 15.2005 11.3411C15.566 10.8807 15.8649 10.2896 15.8649 9.53756H14.8649H13.8649C13.8649 9.71572 13.8057 9.88141 13.6341 10.0976C13.4396 10.3426 13.1684 10.5723 12.7847 10.8986C12.12 11.464 11.0003 12.3804 11.0003 13.9372H12.0003ZM14.8649 9.53756H15.8649C15.8649 8.32435 15.3891 7.34491 14.6259 6.68129C13.8827 6.03507 12.9237 5.73535 12.0003 5.73535C11.077 5.73535 10.1179 6.03507 9.37476 6.68129C8.61157 7.34491 8.13574 8.32435 8.13574 9.53756H9.13574H10.1357C10.1357 8.88263 10.3761 8.46097 10.6871 8.19052C11.0181 7.90266 11.4914 7.73535 12.0003 7.73535C12.5093 7.73535 12.9825 7.90266 13.3136 8.19052C13.6246 8.46097 13.8649 8.88263 13.8649 9.53756H14.8649Z" fill="currentColor"/>
<rect x="10.8472" y="16.0137" width="2.30664" height="2.30664" rx="1.15332" fill="currentColor"/>
</g>
<circle cx="12.0005" cy="12" r="9.66699" stroke="currentColor" stroke-width="2"/>
<defs>
<clipPath id="clip0_2115_4022">
<rect width="13.75" height="13.75" fill="white" transform="translate(5.125 5.125)"/>
</clipPath>
</defs>
</svg>
