<svg width="15" height="16" viewBox="0 0 15 16" fill="none" xmlns="http://www.w3.org/2000/svg">
<path fill-rule="evenodd" clip-rule="evenodd" d="M13.498 0.0749907C14.1558 -0.193285 14.876 0.291391 14.876 1.00175V14.8435C14.876 15.5636 14.1379 16.0474 13.4775 15.7605L5.24609 12.1853V3.4412L13.498 0.0749907ZM3.52246 11.9949C3.52051 11.9949 3.51855 11.9939 3.5166 11.9939L3.52246 11.9978L2.9043 15.0516C2.80272 15.5526 2.32725 15.8867 1.82129 15.8133C1.28096 15.7348 0.913479 15.2234 1.01172 14.6863L1.60742 11.4285C0.640214 10.8006 0.000110041 9.71149 0 8.47245V7.21952C7.44697e-05 5.27411 1.57708 3.69723 3.52246 3.69706V11.9949Z" fill="#666666"/>
</svg>
