<svg width="14" height="14" viewBox="0 0 14 14" fill="none" xmlns="http://www.w3.org/2000/svg">
<path fill-rule="evenodd" clip-rule="evenodd" d="M4.575 0C4.93398 0 5.225 0.298477 5.225 0.666667V1.33333H9.775V0.666667C9.775 0.298477 10.066 0 10.425 0C10.784 0 11.075 0.298477 11.075 0.666667V1.34979C12.7173 1.51703 14 2.93822 14 4.66667V10.6667C14 12.5076 12.5449 14 10.75 14H4.25C2.45507 14 1 12.5076 1 10.6667V4.66667C1 2.93822 2.28267 1.51703 3.925 1.34979V0.666667C3.925 0.298477 4.21601 0 4.575 0ZM2.41096 4H12.589C12.3213 3.22321 11.599 2.66667 10.75 2.66667H4.25C3.40096 2.66667 2.67865 3.22321 2.41096 4ZM12.7 5.33333H2.3V10.6667C2.3 11.7712 3.17304 12.6667 4.25 12.6667H10.75C11.827 12.6667 12.7 11.7712 12.7 10.6667V5.33333Z" fill="#FF4805"/>
</svg>
