<svg width="19" height="19" viewBox="0 0 19 19" fill="none" xmlns="http://www.w3.org/2000/svg">
<path d="M7.71094 11.4795C8.70866 11.4789 9.69067 11.6001 10.6582 11.8447C11.6255 12.0894 12.5823 12.4559 13.5283 12.9463C13.8655 13.1289 14.1394 13.3924 14.3535 13.7549C14.5648 14.1126 14.6704 14.5029 14.6699 14.9395V17.1074C14.6698 17.6001 14.2709 17.9998 13.7783 18H1.64258C1.14981 18 0.750087 17.6002 0.75 17.1074V14.9395C0.750066 14.5021 0.856467 14.1126 1.06738 13.7559C1.28274 13.3917 1.55878 13.1269 1.89844 12.9434L1.89746 12.9424C2.84135 12.4524 3.79596 12.0885 4.76074 11.8457C5.72908 11.6021 6.71233 11.4801 7.71094 11.4795ZM7.70996 2.45605C8.55982 2.45605 9.27464 2.76149 9.89258 3.4043C10.511 4.0478 10.8153 4.80455 10.8154 5.71582C10.8154 6.6273 10.5111 7.3847 9.89258 8.02832C9.27464 8.67113 8.55982 8.97656 7.70996 8.97656C6.8602 8.97651 6.14621 8.67107 5.52832 8.02832C4.90962 7.38464 4.60547 6.62744 4.60547 5.71582C4.60558 4.80442 4.90973 4.04786 5.52832 3.4043C6.14621 2.76154 6.8602 2.4561 7.70996 2.45605Z" stroke="white" stroke-width="1.5"/>
<path d="M13.8418 2.75488H18.0012" stroke="white" stroke-width="1.5" stroke-linecap="round"/>
<path d="M15.9258 0.75L15.9258 4.76771" stroke="white" stroke-width="1.5" stroke-linecap="round"/>
</svg>
