<svg width="25" height="15" viewBox="0 0 25 15" fill="none" xmlns="http://www.w3.org/2000/svg">
<path d="M19.5 12.6973V14.6973H7.5V12.6973C7.5 12.6973 7.5 8.69727 13.5 8.69727C19.5 8.69727 19.5 12.6973 19.5 12.6973ZM16.5 3.69727C16.5 3.10392 16.3241 2.5239 15.9944 2.03056C15.6648 1.53721 15.1962 1.15269 14.6481 0.925628C14.0999 0.698565 13.4967 0.639155 12.9147 0.754911C12.3328 0.870667 11.7982 1.15639 11.3787 1.57595C10.9591 1.9955 10.6734 2.53005 10.5576 3.112C10.4419 3.69394 10.5013 4.29714 10.7284 4.84532C10.9554 5.3935 11.3399 5.86203 11.8333 6.19168C12.3266 6.52132 12.9067 6.69727 13.5 6.69727C14.2956 6.69727 15.0587 6.3812 15.6213 5.81859C16.1839 5.25598 16.5 4.49292 16.5 3.69727ZM19.7 8.75727C20.2466 9.26157 20.6873 9.86971 20.9964 10.5462C21.3054 11.2227 21.4766 11.9539 21.5 12.6973V14.6973H24.5V12.6973C24.5 12.6973 24.5 9.24727 19.7 8.75727ZM18.5 0.697267C18.1979 0.697284 17.8976 0.744521 17.61 0.837267C18.1951 1.67624 18.5087 2.67445 18.5087 3.69727C18.5087 4.72008 18.1951 5.7183 17.61 6.55727C17.8976 6.65001 18.1979 6.69725 18.5 6.69727C19.2956 6.69727 20.0587 6.3812 20.6213 5.81859C21.1839 5.25598 21.5 4.49292 21.5 3.69727C21.5 2.90162 21.1839 2.13856 20.6213 1.57595C20.0587 1.01334 19.2956 0.697267 18.5 0.697267ZM8.5 5.69727H5.5V2.69727H3.5V5.69727H0.5V7.69727H3.5V10.6973H5.5V7.69727H8.5V5.69727Z" fill="#FF4805"/>
</svg>
