<svg width="29" height="30" viewBox="0 0 29 30" fill="none" xmlns="http://www.w3.org/2000/svg">
<path d="M18 27.0004H7.19883C6.56231 27.0004 5.95186 26.7475 5.50177 26.2974C5.05168 25.8473 4.79883 25.2369 4.79883 24.6004V5.40037C4.79883 4.06837 5.86683 3.00037 7.19883 3.00037H15.9704C16.5008 3.00037 17.0095 3.21108 17.3846 3.58615L23.413 9.61458C23.7881 9.98965 23.9988 10.4984 23.9988 11.0288V16.1" stroke="black"/>
<rect x="20" y="22.6" width="6" height="4" rx="1" stroke="#7C7C7C"/>
<path d="M25 22.6V20.6C25 19.4954 24.1046 18.6 23 18.6V18.6C21.8954 18.6 21 19.4954 21 20.6V22.6" stroke="#7C7C7C"/>
<path d="M16.5 3.59998V9.09998C16.5 10.2045 17.3954 11.1 18.5 11.1H23.5" stroke="black" stroke-linecap="round"/>
</svg>
