<svg width="29" height="30" viewBox="0 0 29 30" fill="none" xmlns="http://www.w3.org/2000/svg">
<path d="M18.5 27.0004H7.19883C6.56231 27.0004 5.95186 26.7475 5.50177 26.2974C5.05168 25.8473 4.79883 25.2369 4.79883 24.6004V5.40037C4.79883 4.06837 5.86683 3.00037 7.19883 3.00037H15.9704C16.5008 3.00037 17.0095 3.21108 17.3846 3.58615L23.413 9.61458C23.7881 9.98965 23.9988 10.4984 23.9988 11.0288V17" stroke="black" stroke-linecap="round"/>
<path d="M16.5 3.59998V9.09998C16.5 10.2045 17.3954 11.1 18.5 11.1H23.5" stroke="black" stroke-linecap="round"/>
<path d="M23 27C25.2091 27 27 25.2091 27 23C27 20.7909 25.2091 19 23 19C20.7909 19 19 20.7909 19 23C19 25.2091 20.7909 27 23 27Z" stroke="#FF4805" stroke-linecap="round" stroke-linejoin="round"/>
<path d="M21.685 19.4H22.085C21.305 21.736 21.305 24.264 22.085 26.6H21.685" stroke="#FF4805" stroke-linecap="round" stroke-linejoin="round"/>
<path d="M23.6992 19.4C24.4792 21.736 24.4792 24.264 23.6992 26.6" stroke="#FF4805" stroke-linecap="round" stroke-linejoin="round"/>
<path d="M19.4004 24.6V24.2C21.7364 24.98 24.2644 24.98 26.6004 24.2V24.6" stroke="#FF4805" stroke-linecap="round" stroke-linejoin="round"/>
<path d="M19.4004 21.8C21.7364 21.02 24.2644 21.02 26.6004 21.8" stroke="#FF4805" stroke-linecap="round" stroke-linejoin="round"/>
</svg>
