<svg width="29" height="30" viewBox="0 0 29 30" fill="none" xmlns="http://www.w3.org/2000/svg">
<path d="M16.7988 27.0004H7.19883C6.56231 27.0004 5.95186 26.7475 5.50177 26.2974C5.05168 25.8473 4.79883 25.2369 4.79883 24.6004V5.40037C4.79883 4.06837 5.86683 3.00037 7.19883 3.00037H15.9704C16.5008 3.00037 17.0095 3.21108 17.3846 3.58615L23.413 9.61458C23.7881 9.98965 23.9988 10.4984 23.9988 11.0288V16.7999" stroke="black" stroke-linecap="round"/>
<path d="M16.5 3.59998V9.09998C16.5 10.2045 17.3954 11.1 18.5 11.1H23.5" stroke="black" stroke-linecap="round"/>
<path d="M23 22.6C22.45 22.6 21.9792 22.4041 21.5875 22.0125C21.1958 21.6208 21 21.15 21 20.6C21 20.05 21.1958 19.5791 21.5875 19.1875C21.9792 18.7958 22.45 18.6 23 18.6C23.55 18.6 24.0208 18.7958 24.4125 19.1875C24.8042 19.5791 25 20.05 25 20.6C25 21.15 24.8042 21.6208 24.4125 22.0125C24.0208 22.4041 23.55 22.6 23 22.6ZM20 26.6C19.4477 26.6 19 26.1523 19 25.6V25.2C19 24.9166 19.073 24.6563 19.219 24.419C19.365 24.1816 19.5587 24.0003 19.8 23.875C20.3167 23.6166 20.8417 23.423 21.375 23.294C21.9083 23.165 22.45 23.1003 23 23.1C23.55 23.0996 24.0917 23.1643 24.625 23.294C25.1583 23.4236 25.6833 23.6173 26.2 23.875C26.4417 24 26.6355 24.1813 26.7815 24.419C26.9275 24.6566 27.0003 24.917 27 25.2V25.6C27 26.1523 26.5523 26.6 26 26.6H20Z" stroke="#FF4805"/>
</svg>
