<svg width="24" height="25" viewBox="0 0 24 25" fill="none" xmlns="http://www.w3.org/2000/svg">
<path d="M9.68945 5.44727L11.6895 7.44727H20C20.3493 7.44727 20.6302 7.56283 20.8828 7.81543C21.1354 8.06799 21.2504 8.34826 21.25 8.69629V18.6973C21.25 19.047 21.1339 19.3276 20.8818 19.5801C20.6305 19.8318 20.3508 19.9477 20.001 19.9473H4C3.6503 19.9473 3.36983 19.8317 3.11816 19.5801C2.89805 19.36 2.78191 19.1173 2.75586 18.8252L2.75 18.6963V6.69727C2.75 6.348 2.86599 6.06816 3.11816 5.81641C3.33945 5.5955 3.58196 5.47905 3.87305 5.45312L4.00098 5.44727H9.68945Z" stroke="#999999" stroke-width="1.5"/>
</svg>
