<svg width="25" height="25" viewBox="0 0 25 25" fill="none" xmlns="http://www.w3.org/2000/svg">
<g clip-path="url(#clip0_3832_8107)">
<path d="M19.5 17.6973V19.6973H7.5V17.6973C7.5 17.6973 7.5 13.6973 13.5 13.6973C19.5 13.6973 19.5 17.6973 19.5 17.6973ZM16.5 8.69727C16.5 8.10392 16.3241 7.5239 15.9944 7.03056C15.6648 6.53721 15.1962 6.15269 14.6481 5.92563C14.0999 5.69857 13.4967 5.63916 12.9147 5.75491C12.3328 5.87067 11.7982 6.15639 11.3787 6.57595C10.9591 6.9955 10.6734 7.53005 10.5576 8.112C10.4419 8.69394 10.5013 9.29714 10.7284 9.84532C10.9554 10.3935 11.3399 10.862 11.8333 11.1917C12.3266 11.5213 12.9067 11.6973 13.5 11.6973C14.2956 11.6973 15.0587 11.3812 15.6213 10.8186C16.1839 10.256 16.5 9.49292 16.5 8.69727ZM19.7 13.7573C20.2466 14.2616 20.6873 14.8697 20.9964 15.5462C21.3054 16.2227 21.4766 16.9539 21.5 17.6973V19.6973H24.5V17.6973C24.5 17.6973 24.5 14.2473 19.7 13.7573ZM18.5 5.69727C18.1979 5.69728 17.8976 5.74452 17.61 5.83727C18.1951 6.67624 18.5087 7.67445 18.5087 8.69727C18.5087 9.72008 18.1951 10.7183 17.61 11.5573C17.8976 11.65 18.1979 11.6972 18.5 11.6973C19.2956 11.6973 20.0587 11.3812 20.6213 10.8186C21.1839 10.256 21.5 9.49292 21.5 8.69727C21.5 7.90162 21.1839 7.13856 20.6213 6.57595C20.0587 6.01334 19.2956 5.69727 18.5 5.69727ZM8.5 10.6973H5.5V7.69727H3.5V10.6973H0.5V12.6973H3.5V15.6973H5.5V12.6973H8.5V10.6973Z" fill="#FF4805"/>
</g>
<defs>
<clipPath id="clip0_3832_8107">
<rect width="24" height="24" fill="white" transform="translate(0.5 0.697266)"/>
</clipPath>
</defs>
</svg>
