<svg width="56" height="24" viewBox="0 0 56 24" fill="none" xmlns="http://www.w3.org/2000/svg">
<path d="M8 8V16H16.5" stroke="#BCBCBC" stroke-width="2"/>
<rect x="24.5" y="2.5" width="31" height="19" rx="9.5" stroke="#FF4805"/>
<path d="M34.0059 16V7.51562H36.8887C38.8809 7.51562 39.7832 8.61719 39.7832 10.1289C39.7832 11.248 39.2793 12.1328 38.2012 12.5078L40.1113 16H38.8809L37.1113 12.6953L36.9004 12.707H35.0605V16H34.0059ZM35.0605 11.7461H36.8535C38.2012 11.7461 38.7402 11.1367 38.7402 10.1289C38.7402 9.10938 38.2012 8.45312 36.8418 8.45312H35.0605V11.7461ZM43.7793 16.1289C41.9395 16.1289 40.8027 14.8281 40.8027 12.8711C40.8027 10.9141 41.9512 9.55469 43.6855 9.55469C45.0215 9.55469 46.4277 10.375 46.4277 12.7305V13.1523H41.8105C41.8574 14.5 42.6426 15.2383 43.7793 15.2383C44.541 15.2383 45.0215 14.9102 45.2559 14.5117H46.334C46.0293 15.4727 45.0918 16.1289 43.7793 16.1289ZM41.8223 12.2969H45.4082C45.4082 11.2305 44.7285 10.4453 43.6855 10.4453C42.584 10.4453 41.8809 11.3125 41.8223 12.2969Z" fill="#FF4805"/>
</svg>
